# xmcd
#
# Track frame offsets: 
#        150
#        15703
#        32104
#        51812
#        65899
#        81949
#        99717
#        115121
#        133669
#        147063
#        163090
#        180069
#        194730
#
# Disc length: 2767 seconds
#
# Revision: 0
# Processed by: cddbd v1.5.1PL0 Copyright (c) Steve Scherf et al.
# Submitted via: ExactAudioCopy v0.95a4
#
DISCID=b50acd0d
DTITLE=Bruno and Marrone - Sucessos de Bruno and Marrone
DYEAR=1900
DGENRE=Country
TTITLE0=Dormi na praça
TTITLE1=Te amo e não te quero
TTITLE2=Faz de conta
TTITLE3=Apenas um sorriso
TTITLE4=Acorrentado em você
TTITLE5=Machuca demais
TTITLE6=Ta combinado assim
TTITLE7=Fruto especial
TTITLE8=Góias é mais
TTITLE9=Preciso amar de novo
TTITLE10=Não brinque de amor comigo
TTITLE11=Favo de mel
TTITLE12=É nisso que dá
EXTD=
EXTT0=
EXTT1=
EXTT2=
EXTT3=
EXTT4=
EXTT5=
EXTT6=
EXTT7=
EXTT8=
EXTT9=
EXTT10=
EXTT11=
EXTT12=
PLAYORDER=
